<svg width="50" height="46" viewBox="0 0 50 46" fill="none" xmlns="http://www.w3.org/2000/svg">
<rect width="50" height="46" rx="3" fill="#060606"/>
<path fill-rule="evenodd" clip-rule="evenodd" d="M35.7447 21.2196L40.0173 13.8295C41.0033 12.1249 39.7694 10 37.8055 10L29.7864 10L29.213 10L20.7866 10L19.9973 10L12.1924 10C10.2276 10 8.99584 12.1255 9.98048 13.8293L14.0973 20.9498C14.1005 20.9554 14.1037 20.961 14.1069 20.9666L14.2772 21.2611L14.3007 21.3019L18.4901 28.5485C18.4949 28.5567 18.4997 28.5648 18.5045 28.573C18.5045 28.5731 18.5046 28.5731 18.5046 28.5732L18.8448 29.1616L18.8457 29.1633C18.8508 29.172 18.8559 29.1806 18.8611 29.1892L22.7871 35.9796C23.7703 37.6807 26.2279 37.6807 27.2111 35.9794L31.4766 28.6017C31.4874 28.584 31.498 28.5661 31.5084 28.5481L35.7213 21.2609C35.7292 21.2472 35.737 21.2334 35.7447 21.2196ZM30.1095 26.5813L33.8303 20.1458C33.9016 20.0089 33.8985 19.8439 33.821 19.7096L30.1097 13.29L26.267 19.9359L30.1095 26.5813ZM20.7707 27.6774C20.619 27.6724 20.4805 27.5929 20.3998 27.4658L16.6807 21.0333L24.3662 21.0333L28.208 27.6774L20.7707 27.6774ZM24.3664 18.8383L28.2078 12.1947L20.7866 12.1947C20.6271 12.1947 20.4798 12.2778 20.3975 12.4112L16.6815 18.8383L24.3664 18.8383ZM35.2194 17.7433L38.1176 12.7305C38.2541 12.4946 38.0857 12.1947 37.8055 12.1947L32.0116 12.1947L35.2194 17.7433ZM28.2067 29.8724L21.7912 29.8724L24.687 34.881C24.8253 35.1203 25.1726 35.1204 25.3108 34.8812L28.2067 29.8724ZM14.7788 17.7437L17.9872 12.1947L12.1924 12.1947C11.9132 12.1947 11.7439 12.494 11.8805 12.7307L14.7788 17.7437Z" fill="white"/>
</svg>
